<svg xmlns="http://www.w3.org/2000/svg" viewBox="0 0 244.001 297.755">
  <g id="Group_1" data-name="Group 1" transform="translate(0 -412.746)">
    <path id="Path_2" data-name="Path 2" d="M299.079,648.561l-8.89-35.065a455.308,455.308,0,0,0-48.307-17.331l-1.123,16.3-4.552-17.953C215.849,588.7,202,586.134,202,586.134s18.707,71.138,57.945,125.525l45.72,8.031-35.519,5.121a184.211,184.211,0,0,0,15.888,16.837c57.079,52.982,120.655,77.29,142,54.294s-7.623-84.588-64.7-137.57c-17.7-16.425-39.924-29.606-62.175-39.979Z" transform="translate(-202 -94.114)" fill="#6C63FF"/>
    <path id="Path_3" data-name="Path 3" d="M383.632,610.481l10.515-34.612a455.3,455.3,0,0,0-32.395-39.806l-9.384,13.37,5.383-17.721c-14.422-15.5-24.954-24.85-24.954-24.85s-20.757,70.568-15.28,137.406L352.5,674.775,319.451,660.8a184.209,184.209,0,0,0,4.9,22.626c21.476,74.859,63.335,128.531,93.494,119.878s37.2-76.352,15.722-151.211c-6.658-23.207-18.874-45.981-32.559-66.362Z" transform="translate(-202 -94.114)" fill="#2b2a8b"/>
  </g>
</svg>
