<svg viewBox="0 0 43 43" fill="none" xmlns="http://www.w3.org/2000/svg">
    <g id="logo">
        <g id="bg">
            <path id="Vector" d="M21.5 43C33.3741 43 43 33.3741 43 21.5C43 9.62588 33.3741 0 21.5 0C9.62588 0 0 9.62588 0 21.5C0 33.3741 9.62588 43 21.5 43Z" fill="white"/>
            <path id="Vector_2" d="M21.5 40.0558C31.7481 40.0558 40.0558 31.7481 40.0558 21.5C40.0558 11.2519 31.7481 2.94415 21.5 2.94415C11.2519 2.94415 2.94415 11.2519 2.94415 21.5C2.94415 31.7481 11.2519 40.0558 21.5 40.0558Z" fill="white"/>
            <path id="Vector_3" d="M21.5 37.0835C30.1065 37.0835 37.0835 30.1065 37.0835 21.5C37.0835 12.8935 30.1065 5.91655 21.5 5.91655C12.8935 5.91655 5.91655 12.8935 5.91655 21.5C5.91655 30.1065 12.8935 37.0835 21.5 37.0835Z" fill="url(#paint0_linear)"/>
        </g>
        <path id="Vector_4" d="M31.4574 15.8711C30.429 14.065 29.0341 12.635 27.2723 11.581C25.5102 10.5269 23.5865 10 21.4999 10C19.4135 10 17.4892 10.5271 15.7275 11.581C13.9655 12.635 12.5707 14.065 11.5423 15.8711C10.5141 17.6772 10 19.6495 10 21.7879C10 24.3566 10.7311 26.6665 12.1937 28.7181C13.6561 30.7698 15.5453 32.1895 17.8611 32.9774C18.1307 33.0287 18.3303 32.9926 18.46 32.8701C18.5898 32.7474 18.6546 32.5938 18.6546 32.4098C18.6546 32.3791 18.6521 32.1029 18.6471 31.5809C18.642 31.059 18.6395 30.6036 18.6395 30.2151L18.2951 30.2762C18.0755 30.3174 17.7985 30.3349 17.4641 30.3299C17.1298 30.3251 16.7827 30.2892 16.4234 30.2225C16.064 30.1563 15.7296 30.0028 15.4201 29.7623C15.1108 29.5218 14.8912 29.2071 14.7614 28.8185L14.6117 28.4653C14.5119 28.2301 14.3548 27.9689 14.1401 27.6826C13.9254 27.396 13.7084 27.2017 13.4888 27.0994L13.3839 27.0224C13.3141 26.9713 13.2492 26.9096 13.1893 26.8381C13.1294 26.7665 13.0846 26.6949 13.0546 26.6232C13.0246 26.5514 13.0495 26.4926 13.1295 26.4464C13.2094 26.4002 13.354 26.3778 13.5637 26.3778L13.8631 26.4236C14.0627 26.4647 14.3097 26.5872 14.6043 26.792C14.8987 26.9966 15.1408 27.2626 15.3305 27.5899C15.5602 28.0095 15.8369 28.3293 16.1615 28.5494C16.4858 28.7694 16.8128 28.8792 17.1422 28.8792C17.4716 28.8792 17.756 28.8536 17.9957 28.8027C18.2351 28.7516 18.4598 28.6746 18.6695 28.5724C18.7593 27.8865 19.0039 27.3596 19.4031 26.9913C18.8342 26.93 18.3227 26.8377 17.8683 26.7149C17.4142 26.592 16.945 26.3926 16.4609 26.116C15.9766 25.8399 15.5748 25.4969 15.2555 25.0878C14.9361 24.6785 14.6739 24.1411 14.4695 23.4761C14.2649 22.8108 14.1625 22.0435 14.1625 21.1737C14.1625 19.9353 14.5569 18.8815 15.3456 18.0116C14.9761 17.0806 15.011 16.0369 15.4503 14.8806C15.7398 14.7884 16.1691 14.8576 16.7381 15.0877C17.3071 15.318 17.7237 15.5152 17.9884 15.6788C18.253 15.8423 18.4651 15.9808 18.6248 16.0932C19.5534 15.8272 20.5116 15.6942 21.4998 15.6942C22.488 15.6942 23.4464 15.8272 24.375 16.0932L24.944 15.725C25.3331 15.4793 25.7926 15.2541 26.3214 15.0495C26.8504 14.8449 27.255 14.7886 27.5347 14.8808C27.9837 16.0371 28.0237 17.0808 27.6542 18.0118C28.4428 18.8817 28.8373 19.9358 28.8373 21.1739C28.8373 22.0436 28.7346 22.8134 28.5303 23.4838C28.3258 24.1542 28.0614 24.6911 27.7371 25.0955C27.4124 25.4998 27.008 25.8401 26.524 26.1162C26.0398 26.3925 25.5704 26.592 25.1163 26.7149C24.662 26.8378 24.1505 26.9301 23.5816 26.9915C24.1005 27.4518 24.36 28.1784 24.36 29.1709V32.4094C24.36 32.5933 24.4224 32.7469 24.5473 32.8697C24.6721 32.9922 24.8691 33.0283 25.1387 32.9769C27.4549 32.1891 29.3441 30.7694 30.8064 28.7176C32.2686 26.6661 33 24.3562 33 21.7875C32.9995 19.6494 32.4851 17.6772 31.4574 15.8711Z" fill="white"/>
    </g>
    <defs>
        <linearGradient id="paint0_linear" x1="21.5" y1="37.0835" x2="21.5" y2="5.91655" gradientUnits="userSpaceOnUse">
        <stop stop-color="black"/>
        <stop offset="1" stop-color="black"/>
        </linearGradient>
    </defs>
</svg>
