<svg xmlns="http://www.w3.org/2000/svg" viewBox="0 0 313.635 240.661">
  <g id="undraw_feeling_proud_qne1" transform="translate(-311.202 -120.456)">
    <path id="Path_72" data-name="Path 72" d="M859.82,235.615H610.634a9.423,9.423,0,0,0-9.424,9.425V412.9a9.423,9.423,0,0,0,9.425,9.424h94.592l-3.544,22.626s-20.253,10.759-6.013,11.076,81.328,0,81.328,0,12.974,0-7.595-11.392l-3.334-22.31h93.75a9.423,9.423,0,0,0,9.424-9.425V245.039a9.423,9.423,0,0,0-9.424-9.424Z" transform="translate(-244.406 -115.159)" fill="#3f3d56"/>
    <rect id="Rectangle_51" data-name="Rectangle 51" width="249.996" height="139.871" transform="translate(365.823 130.424)" fill="#f2f2f2"/>
    <circle id="Ellipse_7" data-name="Ellipse 7" cx="1.582" cy="1.582" r="1.582" transform="translate(489.239 124.412)" fill="#f2f2f2"/>
    <circle id="Ellipse_8" data-name="Ellipse 8" cx="6.013" cy="6.013" r="6.013" transform="translate(484.808 288.333)" fill="#f2f2f2"/>
    <path id="Path_73" data-name="Path 73" d="M481.452,357.952v3.165H311.2v-2.532l.234-.633,4.2-11.392H477.971Z" fill="#3f3d56"/>
    <path id="Path_74" data-name="Path 74" d="M791.376,470.013c-.31,1.326-1.481,2.725-4.127,4.047-9.493,4.747-28.8-1.266-28.8-1.266s-14.873-2.532-14.873-9.177a11.861,11.861,0,0,1,1.3-.775c3.991-2.112,17.225-7.322,40.691.221a9.786,9.786,0,0,1,4.46,2.923,4.667,4.667,0,0,1,1.342,4.027Z" transform="translate(-244.406 -115.159)" fill="#3f3d56"/>
    <path id="Path_75" data-name="Path 75" d="M791.376,470.013c-11.62,4.452-21.977,4.785-32.607-2.6a23.343,23.343,0,0,0-13.886-4.573c3.991-2.112,17.225-7.322,40.69.221a9.786,9.786,0,0,1,4.46,2.923,4.667,4.667,0,0,1,1.342,4.027Z" transform="translate(-244.406 -115.159)" opacity="0.1"/>
    <ellipse id="Ellipse_9" data-name="Ellipse 9" cx="4.114" cy="1.266" rx="4.114" ry="1.266" transform="translate(528.286 349.724)" fill="#f2f2f2"/>
    <path id="Path_76" data-name="Path 76" d="M481.452,357.952v3.165H311.2v-2.532l.234-.633Z" opacity="0.1"/>
    <g id="Group_13" data-name="Group 13">
      <rect id="Rectangle_55" data-name="Rectangle 55" width="29.752" height="7.163" transform="translate(437.407 176.363)" fill="#6c63ff"/>
      <rect id="Rectangle_56" data-name="Rectangle 56" width="10.468" height="7.163" transform="translate(559.722 176.363)" fill="#6c63ff"/>
      <rect id="Rectangle_57" data-name="Rectangle 57" width="10.468" height="7.163" transform="translate(580.659 176.363)" fill="#6c63ff"/>
      <rect id="Rectangle_58" data-name="Rectangle 58" width="71.075" height="7.163" transform="translate(477.628 176.363)" fill="#6c63ff"/>
      <rect id="Rectangle_59" data-name="Rectangle 59" width="29.752" height="7.163" transform="translate(399.941 222.644)" fill="#6c63ff"/>
      <rect id="Rectangle_60" data-name="Rectangle 60" width="10.468" height="7.163" transform="translate(522.256 222.644)" fill="#6c63ff"/>
      <rect id="Rectangle_61" data-name="Rectangle 61" width="10.468" height="7.163" transform="translate(543.193 222.644)" fill="#6c63ff"/>
      <rect id="Rectangle_62" data-name="Rectangle 62" width="71.075" height="7.163" transform="translate(440.162 222.644)" fill="#6c63ff"/>
      <rect id="Rectangle_63" data-name="Rectangle 63" width="29.752" height="7.163" transform="translate(522.807 192.341)" fill="#6c63ff"/>
      <rect id="Rectangle_64" data-name="Rectangle 64" width="29.752" height="7.163" transform="translate(563.028 192.341)" fill="#6c63ff"/>
      <rect id="Rectangle_66" data-name="Rectangle 66" width="10.468" height="7.163" transform="translate(399.941 192.341)" fill="#6c63ff"/>
      <rect id="Rectangle_67" data-name="Rectangle 67" width="10.468" height="7.163" transform="translate(420.878 192.341)" fill="#6c63ff"/>
      <rect id="Rectangle_68" data-name="Rectangle 68" width="71.075" height="7.163" transform="translate(441.815 192.341)" fill="#6c63ff"/>
      <rect id="Rectangle_69" data-name="Rectangle 69" width="29.752" height="7.163" transform="translate(461.099 207.768)" fill="#6c63ff"/>
      <rect id="Rectangle_70" data-name="Rectangle 70" width="29.752" height="7.163" transform="translate(420.878 207.768)" fill="#6c63ff"/>
      <rect id="Rectangle_71" data-name="Rectangle 71" width="10.468" height="7.163" transform="translate(399.941 207.768)" fill="#6c63ff"/>
      <rect id="Rectangle_73" data-name="Rectangle 73" width="10.468" height="7.163" transform="translate(582.312 207.768)" fill="#6c63ff"/>
      <rect id="Rectangle_74" data-name="Rectangle 74" width="71.075" height="7.163" transform="translate(500.768 207.768)" fill="#6c63ff"/>
    </g>
  </g>
</svg>
