<svg xmlns="http://www.w3.org/2000/svg" viewBox="0 0 222.246 188.868">
  <g id="undraw_online_gallery_dmv3" transform="translate(-325 -103)">
    <path id="Path_101" data-name="Path 101" d="M490.084,230.2a1.208,1.208,0,0,0-1.207,1.207V389.2a1.208,1.208,0,0,0,1.207,1.207H709.916a1.208,1.208,0,0,0,1.207-1.207V231.41a1.208,1.208,0,0,0-1.207-1.207Z" transform="translate(-163.877 -126.853)" fill="#e6e6e6"/>
    <path id="Path_102" data-name="Path 102" d="M697.778,243.224V355.361a2.822,2.822,0,0,1-2.821,2.823H504.6a2.383,2.383,0,0,1-.4-.031,2.821,2.821,0,0,1-2.419-2.792V243.224a2.822,2.822,0,0,1,2.821-2.823H694.955a2.822,2.822,0,0,1,2.823,2.821Z" transform="translate(-163.877 -126.853)" fill="#fff"/>
    <path id="Path_103" data-name="Path 103" d="M627.427,358.634H505.922a2.48,2.48,0,0,1-.454-.036l57.467-99.54a4.024,4.024,0,0,1,7,0l38.567,66.8,1.848,3.2Z" transform="translate(-163.877 -126.853)" fill="#6c63ff"/>
    <path id="Path_104" data-name="Path 104" d="M463.55,231.781H422.066L442.43,202.2l1.466-2.131.733-1.065,1.848,3.2Z" opacity="0.2"/>
    <path id="Path_105" data-name="Path 105" d="M695.081,358.634H589.989l20.365-29.581,1.466-2.131,26.537-38.549a5.37,5.37,0,0,1,7.971-.477,4.791,4.791,0,0,1,.382.477Z" transform="translate(-163.877 -126.853)" fill="#6c63ff"/>
    <circle id="Ellipse_16" data-name="Ellipse 16" cx="4" cy="4" r="4" transform="translate(432.246 103)" fill="#fff"/>
    <path id="Path_123" data-name="Path 123" d="M623.677,415.521v26.532a.668.668,0,0,1-.667.668H577.969a.562.562,0,0,1-.1-.007.667.667,0,0,1-.572-.661V415.521a.668.668,0,0,1,.668-.668h45.04a.668.668,0,0,1,.668.668Z" transform="translate(-163.877 -150.853)" fill="#6c63ff"/>
  </g>
</svg>
