<svg xmlns="http://www.w3.org/2000/svg" viewBox="0 0 148.358 474.653">
  <g id="undraw_pitching_36ol" transform="translate(-70.865)">
    <path id="Path_44" data-name="Path 44" d="M151.932,481.518l-11.1,6.055,7.065,23.213L159,511.8l6.056-13.12Z" transform="translate(-47.762 -91.852)" fill="#ffb9b9"/>
    <path id="Path_45" data-name="Path 45" d="M102.479,527.943v11.1l17.157-1.009-.239-9.143Z" transform="translate(36.005 -91.852)" fill="#ffb9b9"/>
    <path id="Path_46" data-name="Path 46" d="M102.479,348.3l6.055,75.694L127.71,535.007l30.277-4.037-10.092-87.8,4.037-80.739Z" transform="translate(-2.346 -91.852)" fill="#2f2e41"/>
    <path id="Path_47" data-name="Path 47" d="M278.785,458.211,206.12,459.22l-8.074,55.508L247.5,537.941l12.111,44.407-61.564,65.6,24.222,30.277s34.314-46.425,59.545-72.666,13.12-105.971,13.12-105.971Z" transform="translate(-97.913 -258.284)" fill="#2f2e41"/>
    <ellipse id="Ellipse_6" data-name="Ellipse 6" cx="22.203" cy="22.203" rx="22.203" ry="22.203" transform="translate(115.272 12.207)" fill="#ffb9b9"/>
    <path id="Path_48" data-name="Path 48" d="M234.548,307.834v22.2l15.139,24.222S272.9,337.1,267.853,333.065s-6.055-35.324-6.055-35.324Z" transform="translate(-105.147 -258.284)" fill="#ffb9b9"/>
    <path id="Path_49" data-name="Path 49" d="M97.433,159.569,82.294,177.735,88.35,303.89l47.434-1.009,8.074-110.007-10.092-28.259-6.923-9.419L114.59,173.7Z" transform="translate(31.968 -91.852)" fill="#fff"/>
    <path id="Path_50" data-name="Path 50" d="M327.106,391.6,316,433.989l11.1,42.388L308.94,500.6l-16.148-76.7s12.111-62.573,13.12-69.638,3.028-8.074,3.028-8.074l8.074,1.009Z" transform="translate(-221.927 -258.284)" fill="#2f2e41"/>
    <path id="Path_51" data-name="Path 51" d="M38.9,241.317l7.065,13.121,2.019,22.2-4.037,25.231,14.129,23.213L72.2,261.5,57.064,179.753H51.008Z" transform="translate(147.021 -91.852)" fill="#2f2e41"/>
    <path id="Path_52" data-name="Path 52" d="M304.544,646.94s-14.129,4.037-19.176,5.046,3.028,20.185,3.028,20.185,5.046,26.24,6.055,31.287,8.074,22.2,17.157,24.222,3.028-35.324,3.028-35.324,4.037-12.111,4.037-16.148-6.055-2.018-6.055-2.018C296.47,672.171,304.544,646.94,304.544,646.94Z" transform="translate(-204.412 -258.284)" fill="#2f2e41"/>
    <path id="Path_53" data-name="Path 53" d="M236.969,724.652c1.009,6.055-1.009,6.055,15.139,8.074s12.111-11.1,12.111-11.1a84.8,84.8,0,0,0-4.037-18.166c-3.028-8.074-19.176,2.019-19.176,2.019S235.96,718.6,236.969,724.652Z" transform="translate(-103.531 -258.284)" fill="#2f2e41"/>
    <path id="Path_54" data-name="Path 54" d="M278.647,298.446l.526,8.976s6.512-14.727,7.522-29.865-16.148-18.166-26.24-19.176S233.2,264.436,233.2,272.51s18.166,6.055,25.231,4.037,10.092,15.139,10.092,15.139l4.037,1.009Z" transform="translate(-121.97 -258.284)" fill="#2f2e41"/>
    <path id="Path_55" data-name="Path 55" d="M111.562,166.716l5.957-7.147L134.676,173.7l-17.157,12.111Z" transform="translate(11.882 -91.852)" fill="#fff"/>
    <path id="Path_56" data-name="Path 56" d="M111.562,164.615l-7.065-9.083L92.386,173.7l15.139,11.1Z" transform="translate(54.172 -91.852)" fill="#fff"/>
    <path id="Path_57" data-name="Path 57" d="M203.547,405.731l4.037,38.351-8.074,23.213-5.046,22.2s0,21.194,20.185,22.2,37.342-63.582,37.342-63.582,3.028,14.129,5.046,22.2,36.333,40.37,36.333,40.37,8.074-1.009,15.139-17.157-14.129-31.287-14.129-31.287l-6.056-21.194,2.018-26.24,14.129-68.629-41.884-21.7,4.542,58.032L251.99,427.934l-22.708-100.42-7.569,5.551-32.3,13.12Z" transform="translate(-101.395 -258.284)" fill="#2f2e41"/>
  </g>
</svg>
